<svg width="162" height="159" fill="none" xmlns="http://www.w3.org/2000/svg"><path d="M92 99.158l-6.366.057c-8.242.073-14.993-6.56-15.066-14.802l-.127-14.28 36.151-.32.127 14.362c.073 8.16-6.478 14.91-14.72 14.983z" fill="#FC0" stroke="#FC0" stroke-width="5" stroke-miterlimit="10" stroke-linecap="round"/><path d="M102.784 65.002l-8 .07-.104-11.799a4.012 4.012 0 013.964-4.035 4.012 4.012 0 014.036 3.964l.104 11.8zm-22.203-.203l-8 .07-.104-11.799a4.012 4.012 0 013.964-4.035 4.012 4.012 0 014.036 3.964l.104 11.8z" fill="#FC0" stroke="#FC0" stroke-miterlimit="10" stroke-linecap="round"/><path d="M74.346 131.011S35.441 122.5 31.454 81.659c-.761-42.534 34-59.148 56.495-58.648 21.005 0 56.268 14.946 57.505 57 0 42-54.175 74.523-57.505 21.139" stroke="#FC0" stroke-width="9" stroke-miterlimit="10" stroke-linecap="round"/></svg>